<svg xmlns="http://www.w3.org/2000/svg" viewBox="0 0 512 512">
  <defs>
    <linearGradient id="bg" x1="12%" y1="8%" x2="88%" y2="92%">
      <stop offset="0%" stop-color="#1A6D73"/>
      <stop offset="52%" stop-color="#103756"/>
      <stop offset="100%" stop-color="#0A1625"/>
    </linearGradient>
    <radialGradient id="glow" cx="78%" cy="18%" r="60%">
      <stop offset="0%" stop-color="#FB923C" stop-opacity="0.55"/>
      <stop offset="46%" stop-color="#FB923C" stop-opacity="0.16"/>
      <stop offset="100%" stop-color="#FB923C" stop-opacity="0"/>
    </radialGradient>
    <linearGradient id="paper" x1="20%" y1="15%" x2="82%" y2="88%">
      <stop offset="0%" stop-color="#FBFDFF"/>
      <stop offset="100%" stop-color="#E8F0F6"/>
    </linearGradient>
    <linearGradient id="accent" x1="10%" y1="0%" x2="100%" y2="100%">
      <stop offset="0%" stop-color="#FF8A3D"/>
      <stop offset="100%" stop-color="#FF5D5D"/>
    </linearGradient>
    <filter id="shadow" x="-20%" y="-20%" width="140%" height="140%">
      <feDropShadow dx="0" dy="18" stdDeviation="18" flood-color="#08111E" flood-opacity="0.28"/>
    </filter>
  </defs>

  <rect width="512" height="512" rx="104" fill="url(#bg)"/>
  <rect width="512" height="512" rx="104" fill="url(#glow)"/>

  <g opacity="0.18" fill="#D9F3FF">
    <circle cx="86" cy="94" r="7"/>
    <circle cx="126" cy="94" r="7"/>
    <circle cx="166" cy="94" r="7"/>
    <circle cx="376" cy="418" r="7"/>
    <circle cx="416" cy="418" r="7"/>
    <circle cx="416" cy="378" r="7"/>
  </g>

  <g filter="url(#shadow)">
    <rect x="92" y="86" width="328" height="340" rx="42" fill="url(#paper)"/>
    <rect x="92" y="86" width="328" height="340" rx="42" fill="none" stroke="#FFFFFF" stroke-opacity="0.58" stroke-width="4"/>
  </g>

  <g opacity="0.42" stroke="#BDD0DD" stroke-width="4" stroke-linecap="round">
    <path d="M136 168H376"/>
    <path d="M136 202H330"/>
    <path d="M136 236H324"/>
  </g>

  <path
    d="M211 165H319L300 212H216L202 268C220 255 243 248 269 248C316 248 348 267 364 300C381 335 373 370 341 396C309 422 267 429 224 415C201 407 183 393 170 373"
    fill="none"
    stroke="#102033"
    stroke-width="34"
    stroke-linecap="round"
    stroke-linejoin="round"
  />

  <path
    d="M218 168H320L302 212H220L206 268C223 255 244 249 268 249"
    fill="none"
    stroke="url(#accent)"
    stroke-width="12"
    stroke-linecap="round"
    stroke-linejoin="round"
  />

  <g transform="translate(360 362) rotate(36)">
    <rect x="-14" y="-54" width="28" height="78" rx="10" fill="#FFF7ED"/>
    <rect x="-14" y="-54" width="28" height="18" rx="10" fill="#FFD6B6"/>
    <path d="M-14 24H14L0 52Z" fill="url(#accent)"/>
    <path d="M-6 24H6L0 36Z" fill="#102033"/>
  </g>
</svg>
